<svg id="Layer_1" data-name="Layer 1" xmlns="http://www.w3.org/2000/svg" viewBox="0 0 1676.45 1216.02"><defs><style>.cls-1{opacity:0.43;}.cls-2{fill:#e5ebf7;}</style></defs><title>conejo</title><g class="cls-1"><path class="cls-2" d="M1601.13,453.09Q1235,231.83,868,11.83A86.23,86.23,0,0,0,825.81,0c-40,0-75.85,34.39-85.69,46.67C710.37,87.24,705.44,128.14,722,174.9c8.77,19,32.76,44.2,77,64,52.68,23.62,111.18,34.23,167.12,50.64,27.2,8,54.3,16.31,81.45,24.49l173.9,55.07c13.48,7,20.81,20.15,21.63,39.18,1.33,31.11-20.9,54.23-52.51,54.23q-394.3.06-788.62,0h-22.5c4.38,63.27,34.78,118.67,88.42,160.9,9.44,7.44,10.87,13.24,7.12,24.35C441.14,748,458.23,839.3,524.33,921.65c20.73,22.62,49.79,47,73.72,62.9l-548.76,0a45.63,45.63,0,0,0,45.63,45.64H678.81c-2,1.26-4,2.44-6.07,3.5Q627,1057.32,581,1080.71c-25,12.8-26.15,15.8-13.35,41.6,2.8,5.63,5.55,11.32,9,16.91a228.38,228.38,0,0,0,23.14,31.2L0,1170.38A45.64,45.64,0,0,0,45.64,1216H712.75c.34,0,.65-.08,1-.1,23.29.09,45.71-4.78,67.19-17.51,52.42-31.08,105.56-61,157.78-92.35,12-7.21,18.91-5.89,28,3.92,27.77,30,56,64.79,85,93.56,6.21,6.16,16.37,11.79,24.74,11.83,151.88.7,275.38.43,427.26.65,12.31,0,14.26-4.21,14.56-16.92,1.61-67.69-58.61-141.31-126.35-146.54-62.59-4.84-94.57-5.4-157.33-3.17-32.94,1.17-52.83-12.71-66.35-43.24-6.85-15.48-6.5-21.8,8.56-29.71,58.51-30.73,115.66-64.14,174.86-93.46,46.19-22.87,66.37-61.29,75.9-108.28,2.64-13,3.41-26.47,5.22-41.2,40.33,0,79.19.82,118-.44,13.75-.45,28.67-3.4,40.77-9.64,51.08-26.36,80.62-69,84.45-126.48,4.16-62.28-21.26-111.44-74.88-143.85M750.6,1162.6c-42.92,23.22-107-.35-133.83-47.71,21-11.07,41.84-22.26,62.85-33.18,33.88-17.62,68.19-34.42,101.66-52.76,30.82-16.88,64.14-11.55,94.88-6.59,16.3,2.63,29.44,24.9,46.45,40.55-60,35-115.14,68.93-172,99.69M1566,684.81c-6.89,2.86-15.13,3.35-22.76,3.41-39.58.33-79.17.16-118.75.16-39.21,0-38.33,0-39.75,38.47-.76,20.55-2.94,41.59-8.5,61.27-6.62,23.42-20.79,41.76-44.15,53.78-61.63,31.75-122.27,65.4-183.34,98.24-3.38,1.82-7,3.1-13.11,5.72-17.53-30.9-34.73-61.83-52.51-92.43-29.24-50.32-53.7-103.67-95.75-145.77-46.3-46.35-100.12-79.73-162.72-98.94-13.67-4.19-25.32-1.13-30,13.18-4.38,13.51.86,24.2,14.83,29.45,4.23,1.59,8.52,3,12.8,4.51,53.83,18.42,102.5,46.51,137.88,90.92,28.83,36.2,52.43,76.87,75.91,117,40.61,69.36,79.71,144.86,118.45,215.28,6.78,12.31,14.68,15.9,27.64,15.84,70.08-.34,108.94-.25,179,0,41.52.16,73.46,18.17,95.74,53.2,4.32,7.15,6.59,16.13,7.74,21.2-12,.15-9.94.08-19.42,0-125.24,0-219.26-.17-344.49.28-13.5,0-22.77-4.14-32-13.87-51.88-54.48-104.09-113.92-157.15-167.23-7.21-7.24-19.77-12.46-30-12.8-54.44-1.8-109.16,1.14-163.39-2.86-167.72-12.4-264.9-190.57-187-340.25,2.94-5.66,5.66-11.43,8-16.1-20.62-14.77-42.37-26.91-59.61-43.68-17.06-16.59-48.31-62.2-46.88-64.07,8-.48,23.18,0,31.23,0q363.06-.12,726.13-.12c42.87,0,77.92-24.76,92.69-64.33,14.47-38.75,4.65-84.24-28.43-109-17.52-13.08-39.82-21.17-61.15-27.5-125.35-37.23-251-73.28-376.63-109.74C778.34,187,755,155.7,757.58,119.22c2.51-35.2,29-64,66.06-68.07,11.8-1.28,26.13,2.45,36.46,8.63Q1082.85,193,1304.75,327.71C1392.94,381,1481,434.4,1569.41,487.32c28.47,17.05,49.22,39.23,57.79,72.22,12.9,49.58-13.76,105.58-61.21,125.27"/></g></svg>