<svg id="Layer_1" data-name="Layer 1" xmlns="http://www.w3.org/2000/svg" viewBox="0 0 406 155"><defs><style>.cls-1{fill:#fff;}.cls-2{fill:#00d382;}.cls-3{fill:none;}</style></defs><title>logo</title><path class="cls-1" d="M315.57,39.29h-5.4a1,1,0,0,1-.93-1.38l1.86-6.79a1.91,1.91,0,0,0-1.89-2.58,2.69,2.69,0,0,0-.88.27l-6.88,2.9a3.93,3.93,0,0,0-2.31,2.69l-.95,3.54c-.11.59-.39,1.36-1.29,1.36h-1.73c-1.63,0-2.1.73-2.48,2.16l-.95,3.46c-.38,1.43.12,2.58,1.79,2.58H294c1.43,0,1.53.62,1,2.58L281.92,99.12c-1.27,4.86,2.29,7.75,5.43,7.75h2a7.35,7.35,0,0,0,7-4.78c.19-.58.46-1.61.67-2.34a.64.64,0,0,0-.71-.77h-2.23a1,1,0,0,1-.88-1.27c.08-.35,12.89-48.24,12.89-48.24.38-1.42.35-2,2.25-2h5.22c2.12,0,2.14-1.15,2.52-2.58l.93-3.39c.38-1.43-.36-2.27-1.48-2.23"/><path class="cls-1" d="M121.61,58Q98.45,44,75.25,30.14a5.42,5.42,0,0,0-2.67-.75c-2.53,0-4.79,2.17-5.41,3A8.1,8.1,0,0,0,66,40.45c.56,1.2,2.07,2.79,4.87,4,3.33,1.49,7,2.16,10.56,3.2,1.72.5,3.44,1,5.16,1.55l11,3.48A2.69,2.69,0,0,1,99,55.21a3.19,3.19,0,0,1-3.32,3.43H44.36A14,14,0,0,0,50,68.81a1.15,1.15,0,0,1,.45,1.54,17.28,17.28,0,0,0,3.12,17.32,27.94,27.94,0,0,0,4.66,4H23.48a2.89,2.89,0,0,0,2.89,2.89H63.29l-.38.22-5.8,3c-1.58.81-1.66,1-.85,2.63.18.35.35.71.57,1.07a14.61,14.61,0,0,0,1.46,2H20.37a2.88,2.88,0,0,0,2.88,2.88H65.5a8.17,8.17,0,0,0,4.25-1.11c3.31-2,6.67-3.85,10-5.84a1.18,1.18,0,0,1,1.77.25c1.76,1.89,3.54,4.09,5.38,5.91a2.52,2.52,0,0,0,1.56.75c9.61.05,17.42,0,27,0,.78,0,.9-.26.92-1.07.1-4.28-3.7-8.93-8-9.26a73.43,73.43,0,0,0-9.95-.2A4,4,0,0,1,94.24,93c-.44-1-.41-1.38.54-1.88,3.7-1.94,7.31-4,11.06-5.91,2.92-1.44,4.19-3.87,4.8-6.84.16-.83.21-1.68.33-2.61,2.55,0,5,0,7.46,0a6,6,0,0,0,2.58-.61,9.75,9.75,0,0,0,.6-17.09M67.83,102.91c-2.71,1.46-6.76,0-8.46-3,1.32-.7,2.64-1.41,4-2.1,2.14-1.11,4.31-2.18,6.43-3.34,2-1.06,4-.73,6-.41,1,.16,1.86,1.57,2.93,2.56-3.79,2.21-7.28,4.36-10.87,6.31m51.56-30.22a3.88,3.88,0,0,1-1.44.22c-2.5,0-5,0-7.51,0s-2.42,0-2.51,2.43a16.88,16.88,0,0,1-.54,3.88,5.32,5.32,0,0,1-2.79,3.4c-3.9,2-7.73,4.13-11.6,6.21-.21.11-.44.19-.82.36-1.11-2-2.2-3.91-3.32-5.84-1.85-3.19-3.4-6.56-6.06-9.22a24.6,24.6,0,0,0-10.29-6.26c-.86-.26-1.6-.07-1.89.83a1.38,1.38,0,0,0,.93,1.87l.81.28a18.39,18.39,0,0,1,8.72,5.75,60.43,60.43,0,0,1,4.8,7.4c2.57,4.38,5,9.16,7.49,13.61a1.7,1.7,0,0,0,1.75,1c4.43,0,6.89,0,11.32,0a6.79,6.79,0,0,1,6,3.37,4.43,4.43,0,0,1,.49,1.34c-.76,0-.62,0-1.22,0-7.92,0-13.87,0-21.79,0a2.52,2.52,0,0,1-2-.88C84.67,99,81.37,95.27,78,91.9a3.06,3.06,0,0,0-1.9-.81c-3.44-.12-6.9.07-10.33-.18A14.63,14.63,0,0,1,54,69.39c.19-.36.36-.72.5-1a31.69,31.69,0,0,1-3.76-2.76,20.46,20.46,0,0,1-3-4c.51,0,1.47,0,2,0H95.61a6.09,6.09,0,0,0,5.86-4.07,6,6,0,0,0-1.8-6.89,12.37,12.37,0,0,0-3.86-1.73C87.88,46.5,79.93,44.22,72,41.92a4.84,4.84,0,0,1-3.72-5,4.62,4.62,0,0,1,4.18-4.3,3.9,3.9,0,0,1,2.3.54q14.09,8.43,28.12,16.94,8.37,5.05,16.73,10.1a7.33,7.33,0,0,1,3.66,4.56,6.87,6.87,0,0,1-3.87,7.92"/><path class="cls-1" d="M213.2,90.92q-4.27,15.93-20,16t-11.43-16l12.44-46.44q4.27-15.93,20-15.94t11.47,15.94Zm1.49-46.44c.91-3.4-.21-5.12-3.38-5.14h-.08c-3.14,0-5.18,1.71-6.1,5.14L192.69,90.92q-1.38,5.14,3.38,5.14t6.18-5.14Z"/><path class="cls-1" d="M254.1,90.91q-4.28,15.95-16.32,16a14.82,14.82,0,0,1-4.88-.71,3.44,3.44,0,0,0-4.05,2.45l-5.12,19.09a3.61,3.61,0,0,1-3.28,2.58h-5.78a1.91,1.91,0,0,1-1.89-2.58l22.29-83.2q4.27-15.95,20-16t11.43,16Zm-20.51,0c-.92,3.44.22,5.15,3.42,5.15s5.22-1.71,6.14-5.15l12.43-46.39q1.38-5.15-3.42-5.14T246,44.48Z"/><path class="cls-1" d="M282.7,28.55h5.86a1.91,1.91,0,0,1,1.89,2.58L289,36.74a3.62,3.62,0,0,1-3.28,2.59h-5.86a1.91,1.91,0,0,1-1.89-2.59l1.5-5.61a3.62,3.62,0,0,1,3.28-2.58m-5,19h5.79a1.92,1.92,0,0,1,1.89,2.58l-14.56,54.19a3.61,3.61,0,0,1-3.27,2.59h-5.79a1.92,1.92,0,0,1-1.89-2.59l14.56-54.19a3.61,3.61,0,0,1,3.27-2.58"/><path class="cls-1" d="M180.75,28.48h5.78a1.91,1.91,0,0,1,1.89,2.58L166,114.5q-4.28,16-20,16t-11.46-16l0-.16a3.6,3.6,0,0,1,3.27-2.58h5.79a1.91,1.91,0,0,1,1.89,2.58l0,.16q-1.38,5.15,3.42,5.14c3.17,0,5.22-1.71,6.13-5.14l1.41-5.27a2,2,0,0,0-2.46-2.51,8.82,8.82,0,0,1-1.7.16q-15.7,0-11.42-16L157,31.06a3.63,3.63,0,0,1,3.28-2.58H166a1.92,1.92,0,0,1,1.89,2.58L151.84,90.91q-1.38,5.15,3.38,5.14c3.17,0,5.22-1.68,6.15-5.06l16.11-59.93a3.62,3.62,0,0,1,3.27-2.58"/><path class="cls-2" d="M315.7,99.76q-1.86,6.9-7.07,6.92a6.06,6.06,0,0,1-2.44-.43.93.93,0,0,0-1.28.62l-2.48,9.25a.94.94,0,0,1-.92.7h-2.78a.94.94,0,0,1-.91-1.19l9.64-36q1.85-6.9,8.67-6.92t4.95,6.92Zm-8.89,0c-.39,1.49.1,2.23,1.48,2.23A2.59,2.59,0,0,0,311,99.76l5.39-20.1c.4-1.49-.1-2.23-1.48-2.23a2.61,2.61,0,0,0-2.66,2.21Z"/><path class="cls-2" d="M335,79.64c.39-1.48-.09-2.23-1.45-2.23h0a2.62,2.62,0,0,0-2.65,2.23l-1,3.73a1,1,0,0,1-.92.7h-2.78a1,1,0,0,1-.92-1.19l.87-3.24c1.23-4.6,4.13-6.9,8.67-6.9s6.19,2.3,5,6.9l-5.39,20.12q-1.86,6.93-8.66,6.92t-5-6.92l1.48-5.52q1.84-6.9,7.07-6.92a6,6,0,0,1,2.44.44.94.94,0,0,0,1.28-.63Zm-9.53,20.12c-.4,1.49.09,2.23,1.48,2.23a2.6,2.6,0,0,0,2.66-2.23l1.48-5.53c.38-1.48-.11-2.21-1.47-2.21a2.61,2.61,0,0,0-2.68,2.22Z"/><path class="cls-2" d="M350.37,110q-1.85,6.93-8.66,6.93t-5-6.93l.13-.48a.94.94,0,0,1,.91-.71h2.79a.94.94,0,0,1,.91,1.19c-.4,1.49.1,2.23,1.48,2.23a2.6,2.6,0,0,0,2.66-2.23l.59-2.19a1,1,0,0,0-1.09-1.17,4,4,0,0,1-.69.06q-6.81,0-4.95-6.92l5.39-20.12q1.85-6.9,8.65-6.9t5,6.9Zm-2-10.19,5.4-20.15c.4-1.47-.09-2.21-1.46-2.23h0a2.6,2.6,0,0,0-2.64,2.23l-5.39,20.12c-.4,1.49.09,2.23,1.46,2.23a2.6,2.6,0,0,0,2.67-2.2"/><path class="cls-2" d="M371.57,99.76q-1.86,6.9-8.68,6.92t-4.95-6.92l5.39-20.12q1.85-6.9,8.65-6.9t5,6.9Zm.64-20.12c.4-1.47-.09-2.21-1.46-2.22h0a2.59,2.59,0,0,0-2.64,2.22l-5.39,20.12c-.4,1.49.09,2.23,1.47,2.23a2.61,2.61,0,0,0,2.67-2.23Z"/><polygon class="cls-3" points="-3.23 154.4 -3.23 4.89 400.94 4.89 400.94 153.65 400.94 153.65 -3.23 153.65 -3.23 154.4"/><rect class="cls-3" x="-3" y="5" width="404" height="149"/></svg>